<svg width="800" height="800" viewBox="0 0 800 800" fill="none" xmlns="http://www.w3.org/2000/svg">
<path d="M209.109 564.484C173.781 564.484 145.047 551.719 123.5 526.375C101.953 501.031 87.8126 463.422 79.5782 408.703C67.4532 328.063 79.4845 260.094 113.453 217.328C133.453 192.141 159.703 177.578 189.359 175.234C214.75 173.203 252.703 183.5 289.36 243.984C312.313 281.859 329.766 332.172 337.25 382.016C346.297 442.188 339.563 486.484 316.656 517.406C298.469 541.969 270.5 557.188 233.516 562.719C225.435 563.906 217.277 564.496 209.109 564.484Z" fill="#D2D2D2"/>
<path d="M270.313 775C249.672 775 228.75 768.391 209.906 755.687C182.715 737.262 163.893 708.85 157.531 676.625C153.078 653.719 155.75 635.516 165.688 620.937C181.828 597.266 210.797 591.937 241.453 586.281C244.688 585.687 247.969 585.094 251.297 584.453C258.359 583.109 265.578 581.328 272.578 579.594C298.797 573.125 325.922 566.422 348.313 582.328C363.297 592.953 371.75 611.016 374.281 637.516C377.156 668.094 370.594 698.609 355.797 723.453C339.875 750.187 316 767.859 288.61 773.234C282.582 774.411 276.454 775.002 270.313 775Z" fill="#D2D2D2"/>
<path d="M590.891 414.484C582.731 414.457 574.584 413.83 566.516 412.609C529.547 407.141 501.578 391.906 483.391 367.297C460.485 336.375 453.703 292.094 462.797 231.906C470.281 182.016 487.688 131.75 510.531 94.0155C547 33.7499 585 23.2968 610.531 25.1405C640.094 27.2968 666.297 41.6561 686.328 66.703C720.531 109.469 732.656 177.641 720.485 258.641C712.25 313.328 698.297 350.75 676.563 376.312C654.828 401.875 626.219 414.484 590.891 414.484Z" fill="#D2D2D2"/>
<path d="M529.688 625C523.562 624.999 517.45 624.408 511.438 623.234C484 617.859 460.125 600.188 444.25 573.453C429.453 548.609 422.891 518.094 425.766 487.516C428.266 460.953 436.703 442.953 451.734 432.313C474.125 416.422 501.25 423.109 527.469 429.594C534.469 431.313 541.688 433.094 548.75 434.453L558.578 436.281C589.25 441.922 618.219 447.219 634.359 470.922C644.297 485.5 646.969 503.734 642.516 526.609C636.159 558.84 617.337 587.259 590.141 605.688C571.188 618.406 550.266 625 529.688 625Z" fill="#D2D2D2"/>
</svg>
