<svg width="800" height="800" viewBox="0 0 800 800" fill="none" xmlns="http://www.w3.org/2000/svg">
<path d="M408.333 166.667C426.742 166.667 425 181.591 425 200L426.139 236.021L619.367 290.454L611.303 322.797L590.288 317.558L683.333 500C683.333 532.217 630.228 558.334 575 558.334C519.772 558.334 466.666 532.217 466.666 500L551.46 307.877L427.486 276.966L437.257 567.709C501.626 572.422 550 592.551 550 616.666H266.666C266.666 592.551 315.04 572.422 379.409 567.709L390.83 267.827L250.685 232.885L333.333 425C333.333 457.217 280.228 483.334 225 483.334C169.772 483.334 116.666 457.217 116.666 425L211.857 223.204L190.842 217.964L198.906 185.621L391.639 231.586L391.666 200C391.666 181.591 389.923 166.667 408.333 166.667ZM644.412 500L583.333 348.825V500H644.412ZM505.587 500H566.666V348.825L505.587 500ZM294.412 425.001L233.333 273.826V425.001H294.412ZM155.587 425.001H216.666V273.825L155.587 425.001Z" fill="#D2D2D2"/>
</svg>
