<svg width="325" height="111" viewBox="0 0 325 111" fill="none" xmlns="http://www.w3.org/2000/svg">
<path d="M66.6995 64L60.8195 47.2H63.6275L67.0595 57.304C67.1875 57.624 67.3075 57.976 67.4195 58.36C67.5315 58.728 67.6355 59.112 67.7315 59.512C67.8435 59.896 67.9395 60.264 68.0195 60.616C68.1155 60.952 68.2035 61.256 68.2835 61.528L67.3475 61.504C67.5395 60.928 67.7235 60.392 67.8995 59.896C68.0755 59.4 68.2515 58.936 68.4275 58.504C68.6035 58.072 68.7715 57.664 68.9315 57.28L72.0035 50.104H74.4275L77.4035 57.256C77.5955 57.688 77.7795 58.144 77.9555 58.624C78.1475 59.088 78.3235 59.544 78.4835 59.992C78.6435 60.44 78.7715 60.872 78.8675 61.288L78.0275 61.456C78.1075 61.136 78.1795 60.84 78.2435 60.568C78.3235 60.28 78.3955 60.008 78.4595 59.752C78.5395 59.48 78.6195 59.208 78.6995 58.936C78.7955 58.664 78.8915 58.384 78.9875 58.096C79.0835 57.808 79.1955 57.496 79.3235 57.16L82.9955 47.2H85.7795L79.4195 64H77.6195L72.9155 52.984L73.2755 53.08L68.5955 64H66.6995ZM91.0308 64V47.2H103.751V49.696H93.6228V61.504H103.751V64H91.0308ZM92.3508 56.632V54.136H102.431V56.632H92.3508ZM110.507 64V47.2H113.099V61.504H123.107V64H110.507ZM136.824 64.24C135.544 64.24 134.352 64.04 133.248 63.64C132.144 63.224 131.176 62.632 130.344 61.864C129.528 61.096 128.888 60.184 128.424 59.128C127.96 58.056 127.728 56.88 127.728 55.6C127.728 54.384 127.968 53.256 128.448 52.216C128.944 51.176 129.608 50.272 130.44 49.504C131.288 48.72 132.264 48.12 133.368 47.704C134.472 47.272 135.648 47.056 136.896 47.056C137.888 47.056 138.84 47.192 139.752 47.464C140.664 47.736 141.488 48.088 142.224 48.52C142.976 48.936 143.584 49.392 144.048 49.888L142.44 51.952C141.896 51.472 141.328 51.064 140.736 50.728C140.16 50.376 139.536 50.104 138.864 49.912C138.208 49.72 137.504 49.624 136.752 49.624C135.92 49.624 135.12 49.768 134.352 50.056C133.6 50.328 132.92 50.728 132.312 51.256C131.72 51.784 131.248 52.416 130.896 53.152C130.544 53.888 130.368 54.704 130.368 55.6C130.368 56.576 130.544 57.44 130.896 58.192C131.264 58.944 131.76 59.584 132.384 60.112C133.008 60.624 133.72 61.016 134.52 61.288C135.336 61.56 136.2 61.696 137.112 61.696C137.912 61.696 138.64 61.592 139.296 61.384C139.968 61.16 140.576 60.888 141.12 60.568C141.664 60.232 142.152 59.88 142.584 59.512L143.856 61.648C143.44 62.048 142.864 62.448 142.128 62.848C141.408 63.248 140.592 63.584 139.68 63.856C138.768 64.112 137.816 64.24 136.824 64.24ZM158.113 64.24C156.737 64.24 155.473 64.024 154.321 63.592C153.185 63.144 152.185 62.528 151.321 61.744C150.473 60.96 149.817 60.048 149.353 59.008C148.889 57.952 148.657 56.816 148.657 55.6C148.657 54.384 148.889 53.256 149.353 52.216C149.817 51.16 150.473 50.24 151.321 49.456C152.185 48.672 153.185 48.064 154.321 47.632C155.473 47.184 156.737 46.96 158.113 46.96C159.489 46.96 160.745 47.176 161.881 47.608C163.033 48.04 164.033 48.656 164.881 49.456C165.745 50.24 166.409 51.16 166.873 52.216C167.353 53.256 167.593 54.384 167.593 55.6C167.593 56.816 167.353 57.952 166.873 59.008C166.409 60.048 165.745 60.968 164.881 61.768C164.033 62.552 163.033 63.16 161.881 63.592C160.745 64.024 159.489 64.24 158.113 64.24ZM158.113 61.72C159.121 61.72 160.033 61.568 160.849 61.264C161.681 60.944 162.401 60.512 163.009 59.968C163.633 59.408 164.113 58.76 164.449 58.024C164.785 57.272 164.953 56.464 164.953 55.6C164.953 54.736 164.785 53.936 164.449 53.2C164.113 52.448 163.633 51.8 163.009 51.256C162.401 50.696 161.681 50.264 160.849 49.96C160.033 49.64 159.121 49.48 158.113 49.48C157.121 49.48 156.209 49.64 155.377 49.96C154.545 50.264 153.817 50.688 153.193 51.232C152.585 51.776 152.113 52.424 151.777 53.176C151.457 53.912 151.297 54.72 151.297 55.6C151.297 56.464 151.457 57.272 151.777 58.024C152.113 58.776 152.585 59.424 153.193 59.968C153.817 60.512 154.545 60.944 155.377 61.264C156.209 61.568 157.121 61.72 158.113 61.72ZM173.625 64V47.2H176.169L183.273 56.848H182.241L189.369 47.2H191.865V64H189.273V56.968C189.273 55.592 189.305 54.328 189.369 53.176C189.433 52.008 189.561 50.832 189.753 49.648L190.041 50.584L183.513 59.176H181.929L175.473 50.632L175.737 49.648C175.913 50.8 176.033 51.96 176.097 53.128C176.177 54.28 176.217 55.56 176.217 56.968V64H173.625ZM199.171 64V47.2H211.891V49.696H201.763V61.504H211.891V64H199.171ZM200.491 56.632V54.136H210.571V56.632H200.491ZM232.475 64V49.696H226.715V47.2H240.995V49.696H235.067V64H232.475ZM253.949 64.24C252.573 64.24 251.309 64.024 250.157 63.592C249.021 63.144 248.021 62.528 247.157 61.744C246.309 60.96 245.653 60.048 245.189 59.008C244.725 57.952 244.493 56.816 244.493 55.6C244.493 54.384 244.725 53.256 245.189 52.216C245.653 51.16 246.309 50.24 247.157 49.456C248.021 48.672 249.021 48.064 250.157 47.632C251.309 47.184 252.573 46.96 253.949 46.96C255.325 46.96 256.581 47.176 257.717 47.608C258.869 48.04 259.869 48.656 260.717 49.456C261.581 50.24 262.245 51.16 262.709 52.216C263.189 53.256 263.429 54.384 263.429 55.6C263.429 56.816 263.189 57.952 262.709 59.008C262.245 60.048 261.581 60.968 260.717 61.768C259.869 62.552 258.869 63.16 257.717 63.592C256.581 64.024 255.325 64.24 253.949 64.24ZM253.949 61.72C254.957 61.72 255.869 61.568 256.685 61.264C257.517 60.944 258.237 60.512 258.845 59.968C259.469 59.408 259.949 58.76 260.285 58.024C260.621 57.272 260.789 56.464 260.789 55.6C260.789 54.736 260.621 53.936 260.285 53.2C259.949 52.448 259.469 51.8 258.845 51.256C258.237 50.696 257.517 50.264 256.685 49.96C255.869 49.64 254.957 49.48 253.949 49.48C252.957 49.48 252.045 49.64 251.213 49.96C250.381 50.264 249.653 50.688 249.029 51.232C248.421 51.776 247.949 52.424 247.613 53.176C247.293 53.912 247.133 54.72 247.133 55.6C247.133 56.464 247.293 57.272 247.613 58.024C247.949 58.776 248.421 59.424 249.029 59.968C249.653 60.512 250.381 60.944 251.213 61.264C252.045 61.568 252.957 61.72 253.949 61.72Z" fill="#D2D2D2"/>
<rect width="14" height="110" rx="7" transform="matrix(1 0 0 -1 36 111)" fill="#484848"/>
<rect width="14" height="87" rx="7" transform="matrix(1 0 0 -1 18 98)" fill="#484848"/>
<rect width="14" height="17" rx="7" transform="matrix(1 0 0 -1 0 64)" fill="#D2D2D2"/>
<rect width="14" height="110" rx="7" transform="matrix(-1 0 0 1 289 0)" fill="#484848"/>
<rect width="14" height="87" rx="7" transform="matrix(-1 0 0 1 306.841 14.3208)" fill="#484848"/>
<rect width="14" height="17" rx="7" transform="matrix(-1 0 0 1 324.866 49.6484)" fill="#D2D2D2"/>
</svg>
